<svg width="640" height="360" viewBox="0 0 640 360" fill="none" xmlns="http://www.w3.org/2000/svg">
  <rect width="640" height="360" rx="24" fill="#111111"/>
  <rect x="20" y="20" width="600" height="320" rx="22" fill="#FF7A00"/>
  <rect x="42" y="42" width="556" height="50" rx="16" fill="#FFF7F0"/>
  <rect x="64" y="57" width="136" height="20" rx="10" fill="#111111"/>
  <rect x="504" y="55" width="70" height="24" rx="12" fill="#111111"/>
  <rect x="42" y="116" width="362" height="196" rx="20" fill="#FFF7F0"/>
  <rect x="420" y="116" width="178" height="196" rx="20" fill="#FFF7F0"/>
  <rect x="62" y="138" width="322" height="42" rx="14" fill="#FFFFFF"/>
  <rect x="62" y="191" width="322" height="42" rx="14" fill="#FFFFFF"/>
  <rect x="62" y="244" width="322" height="42" rx="14" fill="#FFFFFF"/>
  <rect x="82" y="151" width="92" height="16" rx="8" fill="#111111"/>
  <rect x="82" y="204" width="122" height="16" rx="8" fill="#111111"/>
  <rect x="82" y="257" width="108" height="16" rx="8" fill="#111111"/>
  <circle cx="316" cy="159" r="11" fill="#FF7A00"/>
  <circle cx="346" cy="159" r="11" fill="#111111"/>
  <circle cx="316" cy="212" r="11" fill="#FF7A00"/>
  <circle cx="346" cy="212" r="11" fill="#111111"/>
  <circle cx="316" cy="265" r="11" fill="#FF7A00"/>
  <circle cx="346" cy="265" r="11" fill="#111111"/>
  <rect x="442" y="142" width="110" height="16" rx="8" fill="#111111"/>
  <rect x="442" y="174" width="136" height="12" rx="6" fill="#555555"/>
  <rect x="442" y="206" width="124" height="12" rx="6" fill="#555555"/>
  <rect x="442" y="244" width="134" height="44" rx="14" fill="#111111"/>
  <rect x="460" y="257" width="98" height="18" rx="9" fill="#FFFFFF"/>
</svg>
