<svg width="640" height="360" viewBox="0 0 640 360" fill="none" xmlns="http://www.w3.org/2000/svg">
  <rect width="640" height="360" rx="24" fill="#FF7A00"/>
  <rect x="18" y="18" width="604" height="324" rx="18" fill="#FFF7F0"/>
  <rect x="42" y="38" width="556" height="42" rx="14" fill="#111111"/>
  <circle cx="72" cy="59" r="16" fill="#FF7A00"/>
  <rect x="98" y="49" width="132" height="20" rx="10" fill="#FFFFFF"/>
  <rect x="466" y="49" width="98" height="20" rx="10" fill="#2A2A2A"/>
  <rect x="42" y="103" width="214" height="206" rx="20" fill="#FFFFFF"/>
  <rect x="272" y="103" width="214" height="206" rx="20" fill="#FFFFFF"/>
  <rect x="502" y="103" width="96" height="206" rx="20" fill="#111111"/>
  <rect x="62" y="121" width="174" height="96" rx="18" fill="#FFD2A8"/>
  <rect x="292" y="121" width="174" height="96" rx="18" fill="#FFD2A8"/>
  <circle cx="148" cy="169" r="32" fill="#FF7A00"/>
  <circle cx="378" cy="169" r="32" fill="#FF7A00"/>
  <rect x="86" y="233" width="126" height="16" rx="8" fill="#111111"/>
  <rect x="316" y="233" width="126" height="16" rx="8" fill="#111111"/>
  <rect x="86" y="260" width="68" height="12" rx="6" fill="#666666"/>
  <rect x="316" y="260" width="68" height="12" rx="6" fill="#666666"/>
  <rect x="170" y="255" width="42" height="22" rx="11" fill="#FF7A00"/>
  <rect x="400" y="255" width="42" height="22" rx="11" fill="#FF7A00"/>
  <rect x="520" y="125" width="60" height="14" rx="7" fill="#FFFFFF"/>
  <rect x="520" y="154" width="48" height="14" rx="7" fill="#4C4C4C"/>
  <rect x="520" y="186" width="42" height="42" rx="14" fill="#FF7A00"/>
  <rect x="520" y="238" width="42" height="42" rx="14" fill="#FFFFFF"/>
</svg>
