<svg width="640" height="360" viewBox="0 0 640 360" fill="none" xmlns="http://www.w3.org/2000/svg">
  <rect width="640" height="360" rx="24" fill="#FF7A00"/>
  <rect x="22" y="22" width="596" height="316" rx="22" fill="#111111"/>
  <rect x="44" y="44" width="150" height="272" rx="18" fill="#1E1E1E"/>
  <rect x="64" y="68" width="86" height="18" rx="9" fill="#FFFFFF"/>
  <rect x="64" y="112" width="110" height="18" rx="9" fill="#FF7A00"/>
  <rect x="64" y="146" width="94" height="18" rx="9" fill="#4D4D4D"/>
  <rect x="64" y="180" width="78" height="18" rx="9" fill="#4D4D4D"/>
  <rect x="216" y="44" width="380" height="58" rx="18" fill="#FFF7F0"/>
  <rect x="238" y="63" width="160" height="20" rx="10" fill="#111111"/>
  <rect x="506" y="61" width="68" height="24" rx="12" fill="#FF7A00"/>
  <rect x="216" y="122" width="380" height="194" rx="18" fill="#FFF7F0"/>
  <rect x="236" y="144" width="340" height="28" rx="10" fill="#111111"/>
  <rect x="236" y="188" width="340" height="34" rx="12" fill="#FFFFFF"/>
  <rect x="236" y="234" width="340" height="34" rx="12" fill="#FFFFFF"/>
  <rect x="236" y="280" width="340" height="34" rx="12" fill="#FFFFFF"/>
  <rect x="254" y="197" width="92" height="16" rx="8" fill="#111111"/>
  <rect x="254" y="243" width="104" height="16" rx="8" fill="#111111"/>
  <rect x="254" y="289" width="86" height="16" rx="8" fill="#111111"/>
  <rect x="468" y="194" width="42" height="22" rx="11" fill="#FF7A00"/>
  <rect x="520" y="194" width="42" height="22" rx="11" fill="#111111"/>
  <rect x="468" y="240" width="42" height="22" rx="11" fill="#FF7A00"/>
  <rect x="520" y="240" width="42" height="22" rx="11" fill="#111111"/>
  <rect x="468" y="286" width="42" height="22" rx="11" fill="#FF7A00"/>
  <rect x="520" y="286" width="42" height="22" rx="11" fill="#111111"/>
</svg>
